<svg width="490" height="132" viewBox="0 0 490 132" fill="none" xmlns="http://www.w3.org/2000/svg">
<g clip-path="url(#clip0_12_5)">
<path d="M97.6501 8.31999C96.7401 5.27999 95.2601 2.45999 93.1401 0.48999C62.2201 31.46 31.1101 62.61 0.330078 93.44C10.8601 93.44 23.9701 93.44 31.9101 93.4C51.1001 74.3 72.1301 53.42 91.2601 34.29C98.6201 26.93 100.61 18.19 97.6501 8.31999V8.31999Z" fill="#02B14F"/>
<path d="M95.6602 108.05C94.2002 103.21 91.2002 99.43 87.6002 96.01C86.2702 94.75 84.8702 93.38 84.8702 93.38C84.8702 93.38 86.3202 91.94 87.6402 90.62C90.2502 88.01 92.7802 85.33 95.4802 82.81C102.26 76.47 105.07 68.75 103.64 59.59C102.95 55.19 101.1 51.26 98.3002 48.25C82.9702 63.57 67.8502 78.68 52.9502 93.57C65.2902 105.95 77.9202 118.61 90.6302 131.37C96.3202 124.72 98.1502 116.27 95.6602 108.05V108.05Z" fill="#02B14F"/>
<path d="M90.6302 131.37C90.3502 131.75 90.8302 131.19 90.6302 131.37V131.37Z" fill="#02B14F"/>
<path d="M147.36 93.63H170.23V104.72H133.43V34.96H147.35V93.63H147.36Z" fill="#232323"/>
<path d="M177.35 40.41C175.72 38.85 174.91 36.9 174.91 34.56C174.91 32.22 175.72 30.28 177.35 28.71C178.97 27.15 181.01 26.36 183.47 26.36C185.93 26.36 187.96 27.14 189.59 28.71C191.21 30.28 192.03 32.23 192.03 34.56C192.03 36.89 191.22 38.84 189.59 40.41C187.96 41.98 185.93 42.76 183.47 42.76C181.01 42.76 178.98 41.98 177.35 40.41ZM190.33 49.36V104.73H176.41V49.36H190.33V49.36Z" fill="#232323"/>
<path d="M217.57 60.8499V87.6299C217.57 89.4999 218.02 90.8499 218.91 91.6799C219.81 92.5099 221.31 92.9299 223.44 92.9299H229.91V104.72H221.16C209.42 104.72 203.56 98.9899 203.56 87.5299V60.8499H197V49.3599H203.56V35.6699H217.58V49.3599H229.91V60.8499H217.58H217.57Z" fill="#232323"/>
<path d="M288.089 81.2399H247.809C248.139 85.2399 249.529 88.37 251.989 90.63C254.439 92.9 257.459 94.03 261.039 94.03C266.209 94.03 269.889 91.7999 272.079 87.3299H287.099C285.509 92.6599 282.459 97.04 277.949 100.47C273.439 103.9 267.899 105.62 261.339 105.62C256.039 105.62 251.279 104.44 247.069 102.07C242.859 99.71 239.579 96.36 237.219 92.03C234.869 87.7 233.689 82.7 233.689 77.04C233.689 71.38 234.849 66.28 237.169 61.95C239.489 57.62 242.739 54.29 246.919 51.96C251.099 49.63 255.899 48.46 261.339 48.46C266.779 48.46 271.269 49.59 275.409 51.86C279.549 54.13 282.769 57.34 285.059 61.5C287.349 65.66 288.489 70.45 288.489 75.84C288.489 77.84 288.359 79.6399 288.089 81.2399V81.2399ZM274.069 71.85C273.999 68.25 272.709 65.37 270.189 63.21C267.669 61.05 264.589 59.96 260.939 59.96C257.489 59.96 254.589 61.01 252.239 63.11C249.889 65.21 248.439 68.12 247.909 71.85H274.069V71.85Z" fill="#232323"/>
<path d="M321.2 60.85H311.55V104.72H297.43V60.85H291.17V49.36H297.43V46.56C297.43 39.76 299.35 34.77 303.2 31.57C307.04 28.37 312.85 26.87 320.6 27.07V38.86C317.22 38.79 314.86 39.36 313.54 40.56C312.21 41.76 311.55 43.93 311.55 47.06V49.36H321.2V60.85V60.85Z" fill="#232323"/>
<path d="M341.489 30.77V104.73H327.569V30.77H341.489V30.77Z" fill="#232323"/>
<path d="M362.67 102.08C358.43 99.7199 355.09 96.37 352.68 92.04C350.26 87.71 349.05 82.7099 349.05 77.0499C349.05 71.3899 350.29 66.39 352.78 62.06C355.27 57.73 358.66 54.3799 362.97 52.0099C367.28 49.6499 372.09 48.46 377.39 48.46C382.69 48.46 387.5 49.6399 391.81 52.0099C396.12 54.3799 399.52 57.72 402 62.06C404.49 66.39 405.73 71.3899 405.73 77.0499C405.73 82.7099 404.45 87.71 401.9 92.04C399.35 96.37 395.9 99.7199 391.56 102.08C387.22 104.45 382.36 105.63 376.99 105.63C371.62 105.63 366.91 104.45 362.67 102.08V102.08ZM384.1 91.59C386.32 90.36 388.09 88.51 389.42 86.04C390.75 83.58 391.41 80.5799 391.41 77.0499C391.41 71.7899 390.03 67.74 387.28 64.91C384.53 62.08 381.16 60.66 377.19 60.66C373.22 60.66 369.88 62.08 367.2 64.91C364.51 67.74 363.17 71.7899 363.17 77.0499C363.17 82.3099 364.48 86.36 367.1 89.19C369.72 92.02 373.02 93.44 376.99 93.44C379.51 93.44 381.88 92.83 384.1 91.59V91.59Z" fill="#232323"/>
<path d="M489.67 49.36L473.56 104.73H458.54L448.49 66.05L438.45 104.73H423.33L407.12 49.36H421.24L430.99 91.53L441.53 49.36H456.25L466.59 91.43L476.34 49.36H489.67V49.36Z" fill="#232323"/>
</g>
<defs>
<clipPath id="clip0_12_5">
<rect width="490" height="132" fill="white"/>
</clipPath>
</defs>
</svg>
